# xmcd
#
# Track frame offsets:
#	150
#	29692
#	55495
#	87458
#	117551
#	148903
#	167825
#	183981
#	202453
#
# Disc length: 2921 seconds
#
# Revision: 2
# Processed by: cddbd v1.5.2PL0 Copyright (c) Steve Scherf et al.
# Submitted via: EasyCDDAExtractor 12.0.2.1
#
DISCID=940b6709
DTITLE=Stoneface and Terminal - Mars E.P.
DYEAR=2008
DGENRE=Trance
TTITLE0=Pictures (Club Mix)
TTITLE1=Endorphine (Album Extended)
TTITLE2=Storm (Club Mix)
TTITLE3=Pictures (Album Extended)
TTITLE4=Endorphine (Trance Xplosion Anthem)
TTITLE5=Pictures (Club Radio)
TTITLE6=Endorphine (Radio Edit)
TTITLE7=Storm (Club Radio)
TTITLE8=Pictures (Album Radio)
EXTD=
EXTT0=
EXTT1=
EXTT2=
EXTT3=
EXTT4=
EXTT5=
EXTT6=
EXTT7=
EXTT8=
PLAYORDER=
